# Engine Pod - 8-sided tapered nacelle
# Intake at z=-0.9 (r=0.45), exhaust at z=0.9 (r=0.30)

# Intake ring (z=-0.9, r=0.45)
v  0.450  0.000 -0.9
v  0.318  0.318 -0.9
v  0.000  0.450 -0.9
v -0.318  0.318 -0.9
v -0.450  0.000 -0.9
v -0.318 -0.318 -0.9
v  0.000 -0.450 -0.9
v  0.318 -0.318 -0.9

# Exhaust ring (z=0.9, r=0.30)
v  0.300  0.000  0.9
v  0.212  0.212  0.9
v  0.000  0.300  0.9
v -0.212  0.212  0.9
v -0.300  0.000  0.9
v -0.212 -0.212  0.9
v  0.000 -0.300  0.9
v  0.212 -0.212  0.9

# Intake cap center
v  0.000  0.000 -0.9

# Exhaust cap center
v  0.000  0.000  0.9

# Side panels (8 quads)
f 1 2 10 9
f 2 3 11 10
f 3 4 12 11
f 4 5 13 12
f 5 6 14 13
f 6 7 15 14
f 7 8 16 15
f 8 1 9 16

# Intake cap (8 triangles, normal -Z)
f 17 2 1
f 17 3 2
f 17 4 3
f 17 5 4
f 17 6 5
f 17 7 6
f 17 8 7
f 17 1 8

# Exhaust cap (8 triangles, normal +Z)
f 18 9 10
f 18 10 11
f 18 11 12
f 18 12 13
f 18 13 14
f 18 14 15
f 18 15 16
f 18 16 9
